<svg width="79" height="55" viewBox="0 0 79 55" fill="none" xmlns="http://www.w3.org/2000/svg">
<path d="M32.6216 5.98461C35.1502 3.35231 38.6696 1.71647 42.5604 1.71647C47.7329 1.71647 52.2487 4.60222 54.6535 8.88476C56.7444 7.95164 59.057 7.43037 61.4877 7.43037C70.8189 7.43037 78.3846 15.0623 78.3846 24.477C78.3846 33.8917 70.8189 41.5237 61.4877 41.5237C60.3472 41.5237 59.2356 41.4085 58.1584 41.1925C56.0417 44.9681 52.0068 47.5198 47.3758 47.5198C45.4375 47.5198 43.603 47.0734 41.9729 46.2756C39.8273 51.3242 34.8277 54.8638 28.9986 54.8638C23.1695 54.8638 17.758 51.0247 15.7737 45.6392C14.9068 45.8235 14.0054 45.9185 13.0838 45.9185C5.85789 45.9185 0 40.0001 0 32.6994C0 27.8063 2.63231 23.5353 6.54045 21.2485C5.73405 19.3938 5.28766 17.3519 5.28766 15.2035C5.29342 6.80829 12.1075 0 20.517 0C25.4533 0 29.8395 2.34719 32.6216 5.98461Z" fill="#00B3FF"/>
<path d="M11.3556 28.4501C11.3066 28.5797 11.3729 28.6056 11.3902 28.6287C11.537 28.7352 11.6868 28.813 11.8366 28.8994C12.6343 29.3227 13.3918 29.4466 14.1809 29.4466C15.7879 29.4466 16.7873 28.5912 16.7873 27.2146V27.1887C16.7873 25.9157 15.6612 25.452 14.6042 25.118L14.466 25.0748C13.6682 24.8156 12.9799 24.5909 12.9799 24.0668V24.0409C12.9799 23.5916 13.3831 23.2604 14.0052 23.2604C14.6993 23.2604 15.5172 23.4908 16.0471 23.7817C16.0471 23.7817 16.2026 23.8825 16.2602 23.7327C16.2919 23.6521 16.5597 22.9292 16.5857 22.8514C16.6173 22.7679 16.5626 22.7045 16.5079 22.67C15.9031 22.3013 15.0679 22.0508 14.2039 22.0508H14.0426C12.571 22.0508 11.5428 22.9407 11.5428 24.2137V24.2396C11.5428 25.5816 12.6775 26.0194 13.7374 26.3218L13.9073 26.3736C14.682 26.6098 15.3473 26.8172 15.3473 27.3586V27.3845C15.3473 27.8828 14.9124 28.2514 14.2154 28.2514C13.9447 28.2514 13.0778 28.2456 12.1447 27.6552C12.0324 27.589 11.9662 27.5429 11.8798 27.4882C11.8337 27.4594 11.7185 27.4104 11.6695 27.5602L11.3527 28.4415L11.3556 28.4501Z" fill="white"/>
<path d="M34.8947 28.4501C34.8457 28.5797 34.9119 28.6056 34.9292 28.6287C35.0761 28.7352 35.2259 28.813 35.3756 28.8994C36.1763 29.3227 36.9308 29.4466 37.7199 29.4466C39.327 29.4466 40.3263 28.5912 40.3263 27.2146V27.1887C40.3263 25.9157 39.2002 25.452 38.1433 25.118L38.005 25.0748C37.2073 24.8156 36.519 24.5909 36.519 24.0668V24.0409C36.519 23.5916 36.9222 23.2604 37.5443 23.2604C38.2355 23.2604 39.0562 23.4908 39.5862 23.7817C39.5862 23.7817 39.7417 23.8825 39.7993 23.7327C39.831 23.6521 40.0988 22.9292 40.1247 22.8514C40.1564 22.7679 40.1017 22.7045 40.047 22.67C39.4422 22.3013 38.607 22.0508 37.743 22.0508H37.5817C36.11 22.0508 35.0819 22.9407 35.0819 24.2137V24.2396C35.0819 25.5816 36.2166 26.0194 37.2764 26.3218L37.4463 26.3736C38.221 26.6098 38.8863 26.8172 38.8863 27.3586V27.3845C38.8863 27.8828 38.4514 28.2514 37.7545 28.2514C37.4838 28.2514 36.6169 28.2456 35.6838 27.6552C35.5715 27.589 35.5052 27.5429 35.4188 27.4882C35.39 27.4709 35.2547 27.4162 35.2086 27.5602L34.8918 28.4415L34.8947 28.4501Z" fill="white"/>
<path d="M52.3063 24.3139C52.1738 23.8675 51.9693 23.4758 51.6957 23.1475C51.4221 22.8192 51.0765 22.5542 50.6647 22.3642C50.2557 22.1712 49.7719 22.0762 49.2276 22.0762C48.6833 22.0762 48.1994 22.1741 47.7876 22.3642C47.3786 22.5542 47.0301 22.8192 46.7565 23.1475C46.4829 23.4758 46.2785 23.8675 46.146 24.3139C46.0135 24.7574 45.9473 25.2413 45.9473 25.7568C45.9473 26.2723 46.0135 26.7562 46.146 27.1997C46.2785 27.6461 46.4829 28.0377 46.7565 28.3661C47.0301 28.6944 47.3786 28.9565 47.7876 29.1437C48.1994 29.3309 48.6833 29.4259 49.2276 29.4259C49.7719 29.4259 50.2557 29.3309 50.6647 29.1437C51.0736 28.9565 51.4221 28.6944 51.6957 28.3661C51.9693 28.0377 52.1738 27.6461 52.3063 27.1997C52.4388 26.7562 52.505 26.2723 52.505 25.7568C52.505 25.2413 52.4388 24.7574 52.3063 24.3139ZM50.9613 25.7539C50.9613 26.5315 50.8173 27.1449 50.5322 27.5798C50.25 28.0089 49.8208 28.2163 49.2247 28.2163C48.6285 28.2163 48.2023 28.0089 47.9229 27.5798C47.6407 27.1478 47.4996 26.5315 47.4996 25.7539C47.4996 24.9763 47.6436 24.3658 47.9229 23.9366C48.2023 23.5104 48.6285 23.3059 49.2247 23.3059C49.8208 23.3059 50.2471 23.5133 50.5322 23.9366C50.8173 24.3658 50.9613 24.9763 50.9613 25.7539Z" fill="white"/>
<path fill-rule="evenodd" clip-rule="evenodd" d="M63.3278 28.0078C63.2846 27.8782 63.155 27.9272 63.155 27.9272C62.9591 28.0021 62.7518 28.0712 62.53 28.1057C62.3054 28.1403 62.0577 28.1576 61.7956 28.1576C61.1476 28.1576 60.6292 27.9646 60.2606 27.5816C59.8891 27.1985 59.6817 26.5822 59.6846 25.747C59.6846 24.9867 59.8718 24.4165 60.2001 23.9787C60.5256 23.5467 61.0267 23.3221 61.6891 23.3221C62.242 23.3221 62.6654 23.3854 63.1089 23.5266C63.1089 23.5266 63.2126 23.5726 63.2644 23.4344C63.3825 23.109 63.4689 22.8757 63.5956 22.5186C63.6302 22.4149 63.5438 22.3717 63.5121 22.3602C63.3393 22.291 62.9275 22.1816 62.6164 22.1326C62.3255 22.0894 61.9886 22.0664 61.6084 22.0664C61.0439 22.0664 60.5428 22.1614 60.1108 22.3544C59.6817 22.5445 59.3188 22.8094 59.0308 23.1378C58.7428 23.4661 58.524 23.8578 58.3771 24.3042C58.2302 24.7477 58.1582 25.2344 58.1582 25.7499C58.1582 26.8645 58.4577 27.763 59.051 28.4225C59.6443 29.0849 60.5371 29.419 61.7006 29.419C62.3889 29.419 63.0945 29.2808 63.6014 29.0792C63.6014 29.0792 63.6993 29.0331 63.6561 28.9208L63.3278 28.0107V28.0078Z" fill="white"/>
<path fill-rule="evenodd" clip-rule="evenodd" d="M70.1963 24.0605C70.0811 23.6314 69.8018 23.1965 69.6146 22.9978C69.3208 22.6838 69.0357 22.4621 68.7506 22.3411C68.3791 22.1827 67.9356 22.0762 67.4488 22.0762C66.8815 22.0762 66.366 22.1712 65.9484 22.3671C65.5308 22.5629 65.1794 22.8307 64.9029 23.1648C64.6264 23.4989 64.4191 23.8934 64.2866 24.3456C64.1541 24.792 64.0879 25.2816 64.0879 25.7942C64.0879 26.3069 64.157 26.8051 64.2924 27.2457C64.4306 27.6893 64.6524 28.0781 64.9519 28.4006C65.2514 28.7261 65.6344 28.9795 66.0952 29.1581C66.5532 29.3337 67.1061 29.4259 67.7426 29.4259C69.0559 29.423 69.7471 29.1293 70.0322 28.9709C70.084 28.9421 70.1301 28.8931 70.0696 28.7549L69.773 27.9225C69.7269 27.7987 69.6031 27.8419 69.6031 27.8419C69.2776 27.9629 68.8168 28.1789 67.7368 28.1789C67.0312 28.1789 66.51 27.9686 66.1816 27.6432C65.8476 27.312 65.6805 26.8224 65.6546 26.1312H70.1963C70.1963 26.1312 70.3173 26.1312 70.3288 26.016C70.3346 25.967 70.4843 25.0829 70.1935 24.0605H70.1963ZM65.6776 25.0109C65.741 24.5789 65.8591 24.2189 66.0434 23.9395C66.3228 23.5133 66.7461 23.28 67.3423 23.28C67.9384 23.28 68.333 23.5133 68.6152 23.9395C68.8024 24.2189 68.8831 24.5933 68.9148 25.0109H65.6748H65.6776Z" fill="white"/>
<path fill-rule="evenodd" clip-rule="evenodd" d="M33.8096 24.0605C33.6944 23.6314 33.4151 23.1965 33.2279 22.9978C32.9341 22.6838 32.649 22.4621 32.3639 22.3411C31.9924 22.1827 31.5488 22.0762 31.0621 22.0762C30.4948 22.0762 29.9792 22.1712 29.5616 22.3671C29.144 22.5629 28.7927 22.8307 28.5162 23.1648C28.2397 23.4989 28.0324 23.8934 27.8999 24.3456C27.7674 24.792 27.7012 25.2816 27.7012 25.7942C27.7012 26.3069 27.7703 26.8051 27.9085 27.2457C28.0468 27.6893 28.2685 28.0781 28.5652 28.4006C28.8647 28.7261 29.2477 28.9795 29.7085 29.1581C30.1664 29.3337 30.7194 29.4259 31.3588 29.4259C32.672 29.423 33.3632 29.1293 33.6483 28.9709C33.6973 28.9421 33.7463 28.8931 33.6858 28.7549L33.3891 27.9225C33.3431 27.7987 33.2192 27.8419 33.2192 27.8419C32.8938 27.9629 32.433 28.1789 31.353 28.1789C30.6503 28.1789 30.1261 27.9686 29.7978 27.6432C29.4637 27.312 29.2967 26.8224 29.2708 26.1312H33.8125C33.8125 26.1312 33.9335 26.1312 33.945 26.016C33.9507 25.967 34.1005 25.0829 33.8096 24.0605ZM29.2909 25.0109C29.3543 24.5789 29.4724 24.2189 29.6567 23.9395C29.936 23.5133 30.3594 23.28 30.9556 23.28C31.5517 23.28 31.9463 23.5133 32.2285 23.9395C32.4157 24.2189 32.4964 24.5933 32.528 25.0109H29.288H29.2909Z" fill="white"/>
<path d="M21.2784 24.7899C21.0941 24.7755 20.855 24.7698 20.5699 24.7698C20.1811 24.7698 19.8038 24.8187 19.4525 24.9138C19.0982 25.0088 18.7785 25.1586 18.505 25.3544C18.2285 25.5531 18.0067 25.8037 17.8454 26.1032C17.6842 26.4027 17.6035 26.7541 17.6035 27.1515C17.6035 27.549 17.6726 27.9032 17.8109 28.1883C17.9491 28.4763 18.1478 28.7154 18.4042 28.8997C18.6576 29.084 18.9686 29.2194 19.3286 29.3C19.6857 29.3806 20.0889 29.4238 20.5325 29.4238C20.999 29.4238 21.4627 29.3835 21.912 29.3086C22.3584 29.2338 22.9056 29.1214 23.0553 29.0869C23.208 29.0523 23.375 29.0062 23.375 29.0062C23.4873 28.9774 23.4787 28.8565 23.4787 28.8565V24.7007C23.4787 23.7906 23.2339 23.1138 22.7529 22.6962C22.2749 22.2786 21.575 22.0684 20.6649 22.0684C20.3251 22.0684 19.775 22.1144 19.4467 22.1807C19.4467 22.1807 18.456 22.3736 18.047 22.6933C18.047 22.6933 17.9578 22.748 18.0067 22.8748L18.3293 23.7388C18.3696 23.8511 18.479 23.8136 18.479 23.8136C18.479 23.8136 18.5136 23.7992 18.5539 23.7762C19.4265 23.301 20.5325 23.3154 20.5325 23.3154C21.0221 23.3154 21.4022 23.4133 21.6557 23.6092C21.9033 23.7992 22.0301 24.0872 22.0301 24.692V24.885C21.6413 24.8274 21.2813 24.7957 21.2813 24.7957L21.2784 24.7899ZM19.4697 27.9839C19.2912 27.8427 19.2653 27.8053 19.2077 27.7131C19.1184 27.5749 19.0723 27.3762 19.0723 27.1227C19.0723 26.7253 19.2048 26.4373 19.4784 26.2443C19.4784 26.2443 19.8701 25.9045 20.7974 25.916C21.4483 25.9247 22.0301 26.0197 22.0301 26.0197V28.0847C22.0301 28.0847 21.4541 28.2085 20.8032 28.2488C19.8787 28.3035 19.4697 27.9839 19.4726 27.9839H19.4697Z" fill="white"/>
<path fill-rule="evenodd" clip-rule="evenodd" d="M57.9198 22.4494C57.9544 22.3457 57.8824 22.2967 57.8507 22.2852C57.7729 22.2564 57.387 22.1758 57.0904 22.1556C56.5202 22.121 56.2034 22.2161 55.9182 22.3428C55.636 22.4695 55.325 22.674 55.1493 22.9102V22.3572C55.1493 22.2823 55.0946 22.219 55.0197 22.219H53.8562C53.7813 22.219 53.7266 22.2794 53.7266 22.3572V29.1338C53.7266 29.2087 53.787 29.272 53.8648 29.272H55.06C55.1349 29.272 55.1982 29.2116 55.1982 29.1338V25.7498C55.1982 25.2948 55.2501 24.8426 55.348 24.5575C55.4459 24.2753 55.5813 24.0506 55.7454 23.8894C55.9096 23.7281 56.0997 23.6158 56.307 23.5524C56.5173 23.489 56.7505 23.466 56.9176 23.466C57.1537 23.466 57.4158 23.5265 57.4158 23.5265C57.5022 23.5351 57.5512 23.4833 57.5829 23.4026C57.6606 23.1953 57.8824 22.5732 57.9256 22.4494H57.9198Z" fill="white"/>
<path fill-rule="evenodd" clip-rule="evenodd" d="M46.7171 19.3098C46.5731 19.2637 46.4406 19.2349 46.2678 19.2033C46.0921 19.1716 45.8848 19.1543 45.6515 19.1543C44.8307 19.1543 44.1827 19.3876 43.7276 19.8455C43.2755 20.3005 42.9673 20.9946 42.8147 21.9047L42.76 22.2128H41.7289C41.7289 22.2128 41.6022 22.2071 41.5763 22.3453L41.4064 23.29C41.3949 23.3792 41.4323 23.4368 41.5561 23.4368H42.5584L41.5389 29.1219C41.4582 29.5798 41.3689 29.9571 41.2681 30.2422C41.1673 30.5245 41.0694 30.7347 40.9513 30.8874C40.8361 31.0342 40.7238 31.1437 40.5366 31.2099C40.3811 31.2618 40.1997 31.2877 40.0009 31.2877C39.8915 31.2877 39.7446 31.2704 39.6352 31.2474C39.5286 31.2272 39.471 31.2013 39.3904 31.1667C39.3904 31.1667 39.2723 31.1206 39.2262 31.2387C39.1888 31.3338 38.9209 32.071 38.8893 32.1632C38.8576 32.2525 38.9037 32.3245 38.9584 32.3446C39.0909 32.3936 39.1917 32.4224 39.3731 32.4656C39.6265 32.5261 39.8397 32.529 40.0384 32.529C40.456 32.529 40.839 32.4714 41.1529 32.3562C41.4726 32.241 41.7491 32.0422 41.9939 31.7715C42.2589 31.4778 42.4259 31.1725 42.5843 30.7549C42.7427 30.3402 42.8752 29.8275 42.9846 29.2285L44.007 23.4368H45.5046C45.5046 23.4368 45.6313 23.4426 45.6572 23.3044L45.8272 22.3597C45.8387 22.2704 45.8012 22.2128 45.6774 22.2128H44.2259C44.2345 22.1812 44.2979 21.6685 44.4649 21.1876C44.5369 20.9831 44.6694 20.816 44.7846 20.7037C44.8969 20.5914 45.0236 20.5136 45.1648 20.4676C45.3088 20.4215 45.4729 20.3985 45.6515 20.3985C45.7868 20.3985 45.9222 20.4157 46.0259 20.4359C46.167 20.4647 46.2217 20.482 46.2592 20.4935C46.406 20.5396 46.4262 20.4935 46.455 20.4244L46.8035 19.4711C46.838 19.3674 46.7516 19.3242 46.72 19.3127L46.7171 19.3098Z" fill="white"/>
<path fill-rule="evenodd" clip-rule="evenodd" d="M26.422 29.1359C26.422 29.2108 26.3673 29.2742 26.2924 29.2742H25.0886C25.0137 29.2742 24.959 29.2137 24.959 29.1359V19.439C24.959 19.3641 25.0137 19.3008 25.0886 19.3008H26.2924C26.3673 19.3008 26.422 19.3613 26.422 19.439V29.1359Z" fill="white"/>
</svg>
